<svg width="80" height="81" viewBox="0 0 80 81" fill="none" xmlns="http://www.w3.org/2000/svg">
<path fill-rule="evenodd" clip-rule="evenodd" d="M79.9118 52.5093H62.6421L59.9028 35.3041L49.8336 52.382H47.9224C46.7751 50.4062 46.3293 47.5387 46.3293 45.7549C46.3293 42.8238 46.52 39.9558 46.52 36.1955C46.52 31.2256 45.0545 28.6127 41.1664 27.657V27.5296C49.388 26.3822 53.1471 20.9013 53.1471 13.2541C53.1471 2.35819 45.8824 0 36.3872 0H10.8346L0 51.2346H13.5736L17.5247 32.5639H26.5743C31.4176 32.5639 33.3931 34.9217 33.3931 39.4457C33.3931 42.8869 33.0106 45.6272 33.0106 48.2402C33.0106 49.1959 33.2013 51.4894 33.902 52.382L43.7161 62.7694L35.241 80.9314L53.3386 70.1615L66.8479 80.5489L64.3623 63.407L79.9118 52.5093ZM30.6529 23.0044H19.8196L22.4313 10.6425H32.5009C36.0691 10.6425 39.8285 11.5982 39.8285 15.9315C39.8285 21.4759 35.5593 23.0044 30.6529 23.0044ZM53.5938 67.166L40.9759 74.6854L46.7751 62.3226L39.7651 54.9306H51.2991L58.5638 42.6318L60.539 55.0579H72.0095L61.6865 62.2596L63.5344 74.8774L53.5938 67.166Z" fill="#040300"/>
</svg>
